<svg width="40" height="40" viewBox="0 0 40 40" fill="none" xmlns="http://www.w3.org/2000/svg">
<g clip-path="url(#clip0_203_1148)">
<path d="M18 26.6667C18.3682 26.6667 18.6666 26.3682 18.6666 26C18.6666 25.6319 18.3682 25.3334 18 25.3334C17.6318 25.3334 17.3333 25.6319 17.3333 26C17.3333 26.3682 17.6318 26.6667 18 26.6667Z" stroke="#262626" stroke-width="2" stroke-linecap="round" stroke-linejoin="round"/>
<path d="M25.3334 26.6667C25.7015 26.6667 26 26.3682 26 26C26 25.6319 25.7015 25.3334 25.3334 25.3334C24.9652 25.3334 24.6667 25.6319 24.6667 26C24.6667 26.3682 24.9652 26.6667 25.3334 26.6667Z" stroke="#262626" stroke-width="2" stroke-linecap="round" stroke-linejoin="round"/>
<path d="M12.6667 12.6666H15.3334L17.12 21.5933C17.181 21.9002 17.348 22.1759 17.5917 22.3722C17.8355 22.5684 18.1405 22.6726 18.4534 22.6666H24.9334C25.2462 22.6726 25.5512 22.5684 25.795 22.3722C26.0387 22.1759 26.2057 21.9002 26.2667 21.5933L27.3334 16H16" stroke="#262626" stroke-width="2" stroke-linecap="round" stroke-linejoin="round"/>
</g>
<defs>
<clipPath id="clip0_203_1148">
<rect width="16" height="16" fill="white" transform="translate(12 12)"/>
</clipPath>
</defs>
</svg>
